<?xml version="1.0" encoding="utf-8" standalone="no"?>
<!DOCTYPE svg PUBLIC "-//W3C//DTD SVG 1.1//EN"
  "http://www.w3.org/Graphics/SVG/1.1/DTD/svg11.dtd">
<!-- Created with matplotlib (http://matplotlib.org/) -->
<svg height="144pt" version="1.1" viewBox="0 0 360 144" width="360pt" xmlns="http://www.w3.org/2000/svg" xmlns:xlink="http://www.w3.org/1999/xlink">
 <defs>
  <style type="text/css">
*{stroke-linecap:butt;stroke-linejoin:round;}
  </style>
 </defs>
 <g id="figure_1">
  <g id="patch_1">
   <path d="M 0 144 
L 360 144 
L 360 0 
L 0 0 
z
" style="fill:#ffffff;"/>
  </g>
  <g id="axes_1">
   <g id="patch_2">
    <path d="M 184.57 109.96 
L 348.84 109.96 
L 348.84 22.56 
L 184.57 22.56 
z
" style="fill:#ffffff;"/>
   </g>
   <g id="patch_3">
    <path clip-path="url(#p0720386e26)" d="M 184.57 105.987273 
L 275.530833 105.987273 
L 275.530833 97.15899 
L 184.57 97.15899 
z
" style="fill:#7f7f7f;"/>
   </g>
   <g id="patch_4">
    <path clip-path="url(#p0720386e26)" d="M 184.57 88.330707 
L 269.706053 88.330707 
L 269.706053 79.502424 
L 184.57 79.502424 
z
" style="fill:#bcbd22;"/>
   </g>
   <g id="patch_5">
    <path clip-path="url(#p0720386e26)" d="M 184.57 70.674141 
L 296.963257 70.674141 
L 296.963257 61.845859 
L 184.57 61.845859 
z
" style="fill:#2ca02c;"/>
   </g>
   <g id="patch_6">
    <path clip-path="url(#p0720386e26)" d="M 184.57 53.017576 
L 290.814212 53.017576 
L 290.814212 44.189293 
L 184.57 44.189293 
z
" style="fill:#9467bd;"/>
   </g>
   <g id="patch_7">
    <path clip-path="url(#p0720386e26)" d="M 184.57 35.36101 
L 321.461667 35.36101 
L 321.461667 26.532727 
L 184.57 26.532727 
z
" style="fill:#1f77b4;"/>
   </g>
   <g id="matplotlib.axis_1">
    <g id="xtick_1">
     <g id="line2d_1">
      <defs>
       <path d="M 0 0 
L 0 3.5 
" id="mf138fcffef" style="stroke:#000000;stroke-width:0.8;"/>
      </defs>
      <g>
       <use style="stroke:#000000;stroke-width:0.8;" x="184.57" xlink:href="#mf138fcffef" y="109.96"/>
      </g>
     </g>
     <g id="text_1">
      <!-- 0.0 -->
      <defs>
       <path d="M 31.78125 66.40625 
Q 24.171875 66.40625 20.328125 58.90625 
Q 16.5 51.421875 16.5 36.375 
Q 16.5 21.390625 20.328125 13.890625 
Q 24.171875 6.390625 31.78125 6.390625 
Q 39.453125 6.390625 43.28125 13.890625 
Q 47.125 21.390625 47.125 36.375 
Q 47.125 51.421875 43.28125 58.90625 
Q 39.453125 66.40625 31.78125 66.40625 
z
M 31.78125 74.21875 
Q 44.046875 74.21875 50.515625 64.515625 
Q 56.984375 54.828125 56.984375 36.375 
Q 56.984375 17.96875 50.515625 8.265625 
Q 44.046875 -1.421875 31.78125 -1.421875 
Q 19.53125 -1.421875 13.0625 8.265625 
Q 6.59375 17.96875 6.59375 36.375 
Q 6.59375 54.828125 13.0625 64.515625 
Q 19.53125 74.21875 31.78125 74.21875 
z
" id="DejaVuSans-30"/>
       <path d="M 10.6875 12.40625 
L 21 12.40625 
L 21 0 
L 10.6875 0 
z
" id="DejaVuSans-2e"/>
      </defs>
      <g transform="translate(178.20875 123.03875)scale(0.08 -0.08)">
       <use xlink:href="#DejaVuSans-30"/>
       <use x="63.623047" xlink:href="#DejaVuSans-2e"/>
       <use x="95.410156" xlink:href="#DejaVuSans-30"/>
      </g>
     </g>
    </g>
    <g id="xtick_2">
     <g id="line2d_2">
      <g>
       <use style="stroke:#000000;stroke-width:0.8;" x="218.316727" xlink:href="#mf138fcffef" y="109.96"/>
      </g>
     </g>
     <g id="text_2">
      <!-- 2.5 -->
      <defs>
       <path d="M 19.1875 8.296875 
L 53.609375 8.296875 
L 53.609375 0 
L 7.328125 0 
L 7.328125 8.296875 
Q 12.9375 14.109375 22.625 23.890625 
Q 32.328125 33.6875 34.8125 36.53125 
Q 39.546875 41.84375 41.421875 45.53125 
Q 43.3125 49.21875 43.3125 52.78125 
Q 43.3125 58.59375 39.234375 62.25 
Q 35.15625 65.921875 28.609375 65.921875 
Q 23.96875 65.921875 18.8125 64.3125 
Q 13.671875 62.703125 7.8125 59.421875 
L 7.8125 69.390625 
Q 13.765625 71.78125 18.9375 73 
Q 24.125 74.21875 28.421875 74.21875 
Q 39.75 74.21875 46.484375 68.546875 
Q 53.21875 62.890625 53.21875 53.421875 
Q 53.21875 48.921875 51.53125 44.890625 
Q 49.859375 40.875 45.40625 35.40625 
Q 44.1875 33.984375 37.640625 27.21875 
Q 31.109375 20.453125 19.1875 8.296875 
z
" id="DejaVuSans-32"/>
       <path d="M 10.796875 72.90625 
L 49.515625 72.90625 
L 49.515625 64.59375 
L 19.828125 64.59375 
L 19.828125 46.734375 
Q 21.96875 47.46875 24.109375 47.828125 
Q 26.265625 48.1875 28.421875 48.1875 
Q 40.625 48.1875 47.75 41.5 
Q 54.890625 34.8125 54.890625 23.390625 
Q 54.890625 11.625 47.5625 5.09375 
Q 40.234375 -1.421875 26.90625 -1.421875 
Q 22.3125 -1.421875 17.546875 -0.640625 
Q 12.796875 0.140625 7.71875 1.703125 
L 7.71875 11.625 
Q 12.109375 9.234375 16.796875 8.0625 
Q 21.484375 6.890625 26.703125 6.890625 
Q 35.15625 6.890625 40.078125 11.328125 
Q 45.015625 15.765625 45.015625 23.390625 
Q 45.015625 31 40.078125 35.4375 
Q 35.15625 39.890625 26.703125 39.890625 
Q 22.75 39.890625 18.8125 39.015625 
Q 14.890625 38.140625 10.796875 36.28125 
z
" id="DejaVuSans-35"/>
      </defs>
      <g transform="translate(211.955477 123.03875)scale(0.08 -0.08)">
       <use xlink:href="#DejaVuSans-32"/>
       <use x="63.623047" xlink:href="#DejaVuSans-2e"/>
       <use x="95.410156" xlink:href="#DejaVuSans-35"/>
      </g>
     </g>
    </g>
    <g id="xtick_3">
     <g id="line2d_3">
      <g>
       <use style="stroke:#000000;stroke-width:0.8;" x="252.063453" xlink:href="#mf138fcffef" y="109.96"/>
      </g>
     </g>
     <g id="text_3">
      <!-- 5.0 -->
      <g transform="translate(245.702203 123.03875)scale(0.08 -0.08)">
       <use xlink:href="#DejaVuSans-35"/>
       <use x="63.623047" xlink:href="#DejaVuSans-2e"/>
       <use x="95.410156" xlink:href="#DejaVuSans-30"/>
      </g>
     </g>
    </g>
    <g id="xtick_4">
     <g id="line2d_4">
      <g>
       <use style="stroke:#000000;stroke-width:0.8;" x="285.81018" xlink:href="#mf138fcffef" y="109.96"/>
      </g>
     </g>
     <g id="text_4">
      <!-- 7.5 -->
      <defs>
       <path d="M 8.203125 72.90625 
L 55.078125 72.90625 
L 55.078125 68.703125 
L 28.609375 0 
L 18.3125 0 
L 43.21875 64.59375 
L 8.203125 64.59375 
z
" id="DejaVuSans-37"/>
      </defs>
      <g transform="translate(279.44893 123.03875)scale(0.08 -0.08)">
       <use xlink:href="#DejaVuSans-37"/>
       <use x="63.623047" xlink:href="#DejaVuSans-2e"/>
       <use x="95.410156" xlink:href="#DejaVuSans-35"/>
      </g>
     </g>
    </g>
    <g id="xtick_5">
     <g id="line2d_5">
      <g>
       <use style="stroke:#000000;stroke-width:0.8;" x="319.556907" xlink:href="#mf138fcffef" y="109.96"/>
      </g>
     </g>
     <g id="text_5">
      <!-- 10.0 -->
      <defs>
       <path d="M 12.40625 8.296875 
L 28.515625 8.296875 
L 28.515625 63.921875 
L 10.984375 60.40625 
L 10.984375 69.390625 
L 28.421875 72.90625 
L 38.28125 72.90625 
L 38.28125 8.296875 
L 54.390625 8.296875 
L 54.390625 0 
L 12.40625 0 
z
" id="DejaVuSans-31"/>
      </defs>
      <g transform="translate(310.650657 123.03875)scale(0.08 -0.08)">
       <use xlink:href="#DejaVuSans-31"/>
       <use x="63.623047" xlink:href="#DejaVuSans-30"/>
       <use x="127.246094" xlink:href="#DejaVuSans-2e"/>
       <use x="159.033203" xlink:href="#DejaVuSans-30"/>
      </g>
     </g>
    </g>
    <g id="text_6">
     <!-- time per value insertion (ns) -->
     <defs>
      <path d="M 18.3125 70.21875 
L 18.3125 54.6875 
L 36.8125 54.6875 
L 36.8125 47.703125 
L 18.3125 47.703125 
L 18.3125 18.015625 
Q 18.3125 11.328125 20.140625 9.421875 
Q 21.96875 7.515625 27.59375 7.515625 
L 36.8125 7.515625 
L 36.8125 0 
L 27.59375 0 
Q 17.1875 0 13.234375 3.875 
Q 9.28125 7.765625 9.28125 18.015625 
L 9.28125 47.703125 
L 2.6875 47.703125 
L 2.6875 54.6875 
L 9.28125 54.6875 
L 9.28125 70.21875 
z
" id="DejaVuSans-74"/>
      <path d="M 9.421875 54.6875 
L 18.40625 54.6875 
L 18.40625 0 
L 9.421875 0 
z
M 9.421875 75.984375 
L 18.40625 75.984375 
L 18.40625 64.59375 
L 9.421875 64.59375 
z
" id="DejaVuSans-69"/>
      <path d="M 52 44.1875 
Q 55.375 50.25 60.0625 53.125 
Q 64.75 56 71.09375 56 
Q 79.640625 56 84.28125 50.015625 
Q 88.921875 44.046875 88.921875 33.015625 
L 88.921875 0 
L 79.890625 0 
L 79.890625 32.71875 
Q 79.890625 40.578125 77.09375 44.375 
Q 74.3125 48.1875 68.609375 48.1875 
Q 61.625 48.1875 57.5625 43.546875 
Q 53.515625 38.921875 53.515625 30.90625 
L 53.515625 0 
L 44.484375 0 
L 44.484375 32.71875 
Q 44.484375 40.625 41.703125 44.40625 
Q 38.921875 48.1875 33.109375 48.1875 
Q 26.21875 48.1875 22.15625 43.53125 
Q 18.109375 38.875 18.109375 30.90625 
L 18.109375 0 
L 9.078125 0 
L 9.078125 54.6875 
L 18.109375 54.6875 
L 18.109375 46.1875 
Q 21.1875 51.21875 25.484375 53.609375 
Q 29.78125 56 35.6875 56 
Q 41.65625 56 45.828125 52.96875 
Q 50 49.953125 52 44.1875 
z
" id="DejaVuSans-6d"/>
      <path d="M 56.203125 29.59375 
L 56.203125 25.203125 
L 14.890625 25.203125 
Q 15.484375 15.921875 20.484375 11.0625 
Q 25.484375 6.203125 34.421875 6.203125 
Q 39.59375 6.203125 44.453125 7.46875 
Q 49.3125 8.734375 54.109375 11.28125 
L 54.109375 2.78125 
Q 49.265625 0.734375 44.1875 -0.34375 
Q 39.109375 -1.421875 33.890625 -1.421875 
Q 20.796875 -1.421875 13.15625 6.1875 
Q 5.515625 13.8125 5.515625 26.8125 
Q 5.515625 40.234375 12.765625 48.109375 
Q 20.015625 56 32.328125 56 
Q 43.359375 56 49.78125 48.890625 
Q 56.203125 41.796875 56.203125 29.59375 
z
M 47.21875 32.234375 
Q 47.125 39.59375 43.09375 43.984375 
Q 39.0625 48.390625 32.421875 48.390625 
Q 24.90625 48.390625 20.390625 44.140625 
Q 15.875 39.890625 15.1875 32.171875 
z
" id="DejaVuSans-65"/>
      <path id="DejaVuSans-20"/>
      <path d="M 18.109375 8.203125 
L 18.109375 -20.796875 
L 9.078125 -20.796875 
L 9.078125 54.6875 
L 18.109375 54.6875 
L 18.109375 46.390625 
Q 20.953125 51.265625 25.265625 53.625 
Q 29.59375 56 35.59375 56 
Q 45.5625 56 51.78125 48.09375 
Q 58.015625 40.1875 58.015625 27.296875 
Q 58.015625 14.40625 51.78125 6.484375 
Q 45.5625 -1.421875 35.59375 -1.421875 
Q 29.59375 -1.421875 25.265625 0.953125 
Q 20.953125 3.328125 18.109375 8.203125 
z
M 48.6875 27.296875 
Q 48.6875 37.203125 44.609375 42.84375 
Q 40.53125 48.484375 33.40625 48.484375 
Q 26.265625 48.484375 22.1875 42.84375 
Q 18.109375 37.203125 18.109375 27.296875 
Q 18.109375 17.390625 22.1875 11.75 
Q 26.265625 6.109375 33.40625 6.109375 
Q 40.53125 6.109375 44.609375 11.75 
Q 48.6875 17.390625 48.6875 27.296875 
z
" id="DejaVuSans-70"/>
      <path d="M 41.109375 46.296875 
Q 39.59375 47.171875 37.8125 47.578125 
Q 36.03125 48 33.890625 48 
Q 26.265625 48 22.1875 43.046875 
Q 18.109375 38.09375 18.109375 28.8125 
L 18.109375 0 
L 9.078125 0 
L 9.078125 54.6875 
L 18.109375 54.6875 
L 18.109375 46.1875 
Q 20.953125 51.171875 25.484375 53.578125 
Q 30.03125 56 36.53125 56 
Q 37.453125 56 38.578125 55.875 
Q 39.703125 55.765625 41.0625 55.515625 
z
" id="DejaVuSans-72"/>
      <path d="M 2.984375 54.6875 
L 12.5 54.6875 
L 29.59375 8.796875 
L 46.6875 54.6875 
L 56.203125 54.6875 
L 35.6875 0 
L 23.484375 0 
z
" id="DejaVuSans-76"/>
      <path d="M 34.28125 27.484375 
Q 23.390625 27.484375 19.1875 25 
Q 14.984375 22.515625 14.984375 16.5 
Q 14.984375 11.71875 18.140625 8.90625 
Q 21.296875 6.109375 26.703125 6.109375 
Q 34.1875 6.109375 38.703125 11.40625 
Q 43.21875 16.703125 43.21875 25.484375 
L 43.21875 27.484375 
z
M 52.203125 31.203125 
L 52.203125 0 
L 43.21875 0 
L 43.21875 8.296875 
Q 40.140625 3.328125 35.546875 0.953125 
Q 30.953125 -1.421875 24.3125 -1.421875 
Q 15.921875 -1.421875 10.953125 3.296875 
Q 6 8.015625 6 15.921875 
Q 6 25.140625 12.171875 29.828125 
Q 18.359375 34.515625 30.609375 34.515625 
L 43.21875 34.515625 
L 43.21875 35.40625 
Q 43.21875 41.609375 39.140625 45 
Q 35.0625 48.390625 27.6875 48.390625 
Q 23 48.390625 18.546875 47.265625 
Q 14.109375 46.140625 10.015625 43.890625 
L 10.015625 52.203125 
Q 14.9375 54.109375 19.578125 55.046875 
Q 24.21875 56 28.609375 56 
Q 40.484375 56 46.34375 49.84375 
Q 52.203125 43.703125 52.203125 31.203125 
z
" id="DejaVuSans-61"/>
      <path d="M 9.421875 75.984375 
L 18.40625 75.984375 
L 18.40625 0 
L 9.421875 0 
z
" id="DejaVuSans-6c"/>
      <path d="M 8.5 21.578125 
L 8.5 54.6875 
L 17.484375 54.6875 
L 17.484375 21.921875 
Q 17.484375 14.15625 20.5 10.265625 
Q 23.53125 6.390625 29.59375 6.390625 
Q 36.859375 6.390625 41.078125 11.03125 
Q 45.3125 15.671875 45.3125 23.6875 
L 45.3125 54.6875 
L 54.296875 54.6875 
L 54.296875 0 
L 45.3125 0 
L 45.3125 8.40625 
Q 42.046875 3.421875 37.71875 1 
Q 33.40625 -1.421875 27.6875 -1.421875 
Q 18.265625 -1.421875 13.375 4.4375 
Q 8.5 10.296875 8.5 21.578125 
z
M 31.109375 56 
z
" id="DejaVuSans-75"/>
      <path d="M 54.890625 33.015625 
L 54.890625 0 
L 45.90625 0 
L 45.90625 32.71875 
Q 45.90625 40.484375 42.875 44.328125 
Q 39.84375 48.1875 33.796875 48.1875 
Q 26.515625 48.1875 22.3125 43.546875 
Q 18.109375 38.921875 18.109375 30.90625 
L 18.109375 0 
L 9.078125 0 
L 9.078125 54.6875 
L 18.109375 54.6875 
L 18.109375 46.1875 
Q 21.34375 51.125 25.703125 53.5625 
Q 30.078125 56 35.796875 56 
Q 45.21875 56 50.046875 50.171875 
Q 54.890625 44.34375 54.890625 33.015625 
z
" id="DejaVuSans-6e"/>
      <path d="M 44.28125 53.078125 
L 44.28125 44.578125 
Q 40.484375 46.53125 36.375 47.5 
Q 32.28125 48.484375 27.875 48.484375 
Q 21.1875 48.484375 17.84375 46.4375 
Q 14.5 44.390625 14.5 40.28125 
Q 14.5 37.15625 16.890625 35.375 
Q 19.28125 33.59375 26.515625 31.984375 
L 29.59375 31.296875 
Q 39.15625 29.25 43.1875 25.515625 
Q 47.21875 21.78125 47.21875 15.09375 
Q 47.21875 7.46875 41.1875 3.015625 
Q 35.15625 -1.421875 24.609375 -1.421875 
Q 20.21875 -1.421875 15.453125 -0.5625 
Q 10.6875 0.296875 5.421875 2 
L 5.421875 11.28125 
Q 10.40625 8.6875 15.234375 7.390625 
Q 20.0625 6.109375 24.8125 6.109375 
Q 31.15625 6.109375 34.5625 8.28125 
Q 37.984375 10.453125 37.984375 14.40625 
Q 37.984375 18.0625 35.515625 20.015625 
Q 33.0625 21.96875 24.703125 23.78125 
L 21.578125 24.515625 
Q 13.234375 26.265625 9.515625 29.90625 
Q 5.8125 33.546875 5.8125 39.890625 
Q 5.8125 47.609375 11.28125 51.796875 
Q 16.75 56 26.8125 56 
Q 31.78125 56 36.171875 55.265625 
Q 40.578125 54.546875 44.28125 53.078125 
z
" id="DejaVuSans-73"/>
      <path d="M 30.609375 48.390625 
Q 23.390625 48.390625 19.1875 42.75 
Q 14.984375 37.109375 14.984375 27.296875 
Q 14.984375 17.484375 19.15625 11.84375 
Q 23.34375 6.203125 30.609375 6.203125 
Q 37.796875 6.203125 41.984375 11.859375 
Q 46.1875 17.53125 46.1875 27.296875 
Q 46.1875 37.015625 41.984375 42.703125 
Q 37.796875 48.390625 30.609375 48.390625 
z
M 30.609375 56 
Q 42.328125 56 49.015625 48.375 
Q 55.71875 40.765625 55.71875 27.296875 
Q 55.71875 13.875 49.015625 6.21875 
Q 42.328125 -1.421875 30.609375 -1.421875 
Q 18.84375 -1.421875 12.171875 6.21875 
Q 5.515625 13.875 5.515625 27.296875 
Q 5.515625 40.765625 12.171875 48.375 
Q 18.84375 56 30.609375 56 
z
" id="DejaVuSans-6f"/>
      <path d="M 31 75.875 
Q 24.46875 64.65625 21.28125 53.65625 
Q 18.109375 42.671875 18.109375 31.390625 
Q 18.109375 20.125 21.3125 9.0625 
Q 24.515625 -2 31 -13.1875 
L 23.1875 -13.1875 
Q 15.875 -1.703125 12.234375 9.375 
Q 8.59375 20.453125 8.59375 31.390625 
Q 8.59375 42.28125 12.203125 53.3125 
Q 15.828125 64.359375 23.1875 75.875 
z
" id="DejaVuSans-28"/>
      <path d="M 8.015625 75.875 
L 15.828125 75.875 
Q 23.140625 64.359375 26.78125 53.3125 
Q 30.421875 42.28125 30.421875 31.390625 
Q 30.421875 20.453125 26.78125 9.375 
Q 23.140625 -1.703125 15.828125 -13.1875 
L 8.015625 -13.1875 
Q 14.5 -2 17.703125 9.0625 
Q 20.90625 20.125 20.90625 31.390625 
Q 20.90625 42.671875 17.703125 53.65625 
Q 14.5 64.65625 8.015625 75.875 
z
" id="DejaVuSans-29"/>
     </defs>
     <g transform="translate(209.774375 134.78125)scale(0.08 -0.08)">
      <use xlink:href="#DejaVuSans-74"/>
      <use x="39.208984" xlink:href="#DejaVuSans-69"/>
      <use x="66.992188" xlink:href="#DejaVuSans-6d"/>
      <use x="164.404297" xlink:href="#DejaVuSans-65"/>
      <use x="225.927734" xlink:href="#DejaVuSans-20"/>
      <use x="257.714844" xlink:href="#DejaVuSans-70"/>
      <use x="321.191406" xlink:href="#DejaVuSans-65"/>
      <use x="382.714844" xlink:href="#DejaVuSans-72"/>
      <use x="423.828125" xlink:href="#DejaVuSans-20"/>
      <use x="455.615234" xlink:href="#DejaVuSans-76"/>
      <use x="514.794922" xlink:href="#DejaVuSans-61"/>
      <use x="576.074219" xlink:href="#DejaVuSans-6c"/>
      <use x="603.857422" xlink:href="#DejaVuSans-75"/>
      <use x="667.236328" xlink:href="#DejaVuSans-65"/>
      <use x="728.759766" xlink:href="#DejaVuSans-20"/>
      <use x="760.546875" xlink:href="#DejaVuSans-69"/>
      <use x="788.330078" xlink:href="#DejaVuSans-6e"/>
      <use x="851.708984" xlink:href="#DejaVuSans-73"/>
      <use x="903.808594" xlink:href="#DejaVuSans-65"/>
      <use x="965.332031" xlink:href="#DejaVuSans-72"/>
      <use x="1006.445312" xlink:href="#DejaVuSans-74"/>
      <use x="1045.654297" xlink:href="#DejaVuSans-69"/>
      <use x="1073.4375" xlink:href="#DejaVuSans-6f"/>
      <use x="1134.619141" xlink:href="#DejaVuSans-6e"/>
      <use x="1197.998047" xlink:href="#DejaVuSans-20"/>
      <use x="1229.785156" xlink:href="#DejaVuSans-28"/>
      <use x="1268.798828" xlink:href="#DejaVuSans-6e"/>
      <use x="1332.177734" xlink:href="#DejaVuSans-73"/>
      <use x="1384.277344" xlink:href="#DejaVuSans-29"/>
     </g>
    </g>
   </g>
   <g id="matplotlib.axis_2">
    <g id="ytick_1">
     <g id="line2d_6">
      <defs>
       <path d="M 0 0 
L -3.5 0 
" id="mfd2aa10084" style="stroke:#000000;stroke-width:0.8;"/>
      </defs>
      <g>
       <use style="stroke:#000000;stroke-width:0.8;" x="184.57" xlink:href="#mfd2aa10084" y="101.573131"/>
      </g>
     </g>
     <g id="text_7">
      <!-- DynaHist (static, ErrorLimitingLayout2) -->
      <defs>
       <path d="M 19.671875 64.796875 
L 19.671875 8.109375 
L 31.59375 8.109375 
Q 46.6875 8.109375 53.6875 14.9375 
Q 60.6875 21.78125 60.6875 36.53125 
Q 60.6875 51.171875 53.6875 57.984375 
Q 46.6875 64.796875 31.59375 64.796875 
z
M 9.8125 72.90625 
L 30.078125 72.90625 
Q 51.265625 72.90625 61.171875 64.09375 
Q 71.09375 55.28125 71.09375 36.53125 
Q 71.09375 17.671875 61.125 8.828125 
Q 51.171875 0 30.078125 0 
L 9.8125 0 
z
" id="DejaVuSans-44"/>
       <path d="M 32.171875 -5.078125 
Q 28.375 -14.84375 24.75 -17.8125 
Q 21.140625 -20.796875 15.09375 -20.796875 
L 7.90625 -20.796875 
L 7.90625 -13.28125 
L 13.1875 -13.28125 
Q 16.890625 -13.28125 18.9375 -11.515625 
Q 21 -9.765625 23.484375 -3.21875 
L 25.09375 0.875 
L 2.984375 54.6875 
L 12.5 54.6875 
L 29.59375 11.921875 
L 46.6875 54.6875 
L 56.203125 54.6875 
z
" id="DejaVuSans-79"/>
       <path d="M 9.8125 72.90625 
L 19.671875 72.90625 
L 19.671875 43.015625 
L 55.515625 43.015625 
L 55.515625 72.90625 
L 65.375 72.90625 
L 65.375 0 
L 55.515625 0 
L 55.515625 34.71875 
L 19.671875 34.71875 
L 19.671875 0 
L 9.8125 0 
z
" id="DejaVuSans-48"/>
       <path d="M 48.78125 52.59375 
L 48.78125 44.1875 
Q 44.96875 46.296875 41.140625 47.34375 
Q 37.3125 48.390625 33.40625 48.390625 
Q 24.65625 48.390625 19.8125 42.84375 
Q 14.984375 37.3125 14.984375 27.296875 
Q 14.984375 17.28125 19.8125 11.734375 
Q 24.65625 6.203125 33.40625 6.203125 
Q 37.3125 6.203125 41.140625 7.25 
Q 44.96875 8.296875 48.78125 10.40625 
L 48.78125 2.09375 
Q 45.015625 0.34375 40.984375 -0.53125 
Q 36.96875 -1.421875 32.421875 -1.421875 
Q 20.0625 -1.421875 12.78125 6.34375 
Q 5.515625 14.109375 5.515625 27.296875 
Q 5.515625 40.671875 12.859375 48.328125 
Q 20.21875 56 33.015625 56 
Q 37.15625 56 41.109375 55.140625 
Q 45.0625 54.296875 48.78125 52.59375 
z
" id="DejaVuSans-63"/>
       <path d="M 11.71875 12.40625 
L 22.015625 12.40625 
L 22.015625 4 
L 14.015625 -11.625 
L 7.71875 -11.625 
L 11.71875 4 
z
" id="DejaVuSans-2c"/>
       <path d="M 9.8125 72.90625 
L 55.90625 72.90625 
L 55.90625 64.59375 
L 19.671875 64.59375 
L 19.671875 43.015625 
L 54.390625 43.015625 
L 54.390625 34.71875 
L 19.671875 34.71875 
L 19.671875 8.296875 
L 56.78125 8.296875 
L 56.78125 0 
L 9.8125 0 
z
" id="DejaVuSans-45"/>
       <path d="M 9.8125 72.90625 
L 19.671875 72.90625 
L 19.671875 8.296875 
L 55.171875 8.296875 
L 55.171875 0 
L 9.8125 0 
z
" id="DejaVuSans-4c"/>
       <path d="M 45.40625 27.984375 
Q 45.40625 37.75 41.375 43.109375 
Q 37.359375 48.484375 30.078125 48.484375 
Q 22.859375 48.484375 18.828125 43.109375 
Q 14.796875 37.75 14.796875 27.984375 
Q 14.796875 18.265625 18.828125 12.890625 
Q 22.859375 7.515625 30.078125 7.515625 
Q 37.359375 7.515625 41.375 12.890625 
Q 45.40625 18.265625 45.40625 27.984375 
z
M 54.390625 6.78125 
Q 54.390625 -7.171875 48.1875 -13.984375 
Q 42 -20.796875 29.203125 -20.796875 
Q 24.46875 -20.796875 20.265625 -20.09375 
Q 16.0625 -19.390625 12.109375 -17.921875 
L 12.109375 -9.1875 
Q 16.0625 -11.328125 19.921875 -12.34375 
Q 23.78125 -13.375 27.78125 -13.375 
Q 36.625 -13.375 41.015625 -8.765625 
Q 45.40625 -4.15625 45.40625 5.171875 
L 45.40625 9.625 
Q 42.625 4.78125 38.28125 2.390625 
Q 33.9375 0 27.875 0 
Q 17.828125 0 11.671875 7.65625 
Q 5.515625 15.328125 5.515625 27.984375 
Q 5.515625 40.671875 11.671875 48.328125 
Q 17.828125 56 27.875 56 
Q 33.9375 56 38.28125 53.609375 
Q 42.625 51.21875 45.40625 46.390625 
L 45.40625 54.6875 
L 54.390625 54.6875 
z
" id="DejaVuSans-67"/>
      </defs>
      <g transform="translate(21.025 104.612506)scale(0.08 -0.08)">
       <use xlink:href="#DejaVuSans-44"/>
       <use x="77.001953" xlink:href="#DejaVuSans-79"/>
       <use x="136.181641" xlink:href="#DejaVuSans-6e"/>
       <use x="199.560547" xlink:href="#DejaVuSans-61"/>
       <use x="260.839844" xlink:href="#DejaVuSans-48"/>
       <use x="336.035156" xlink:href="#DejaVuSans-69"/>
       <use x="363.818359" xlink:href="#DejaVuSans-73"/>
       <use x="415.917969" xlink:href="#DejaVuSans-74"/>
       <use x="455.126953" xlink:href="#DejaVuSans-20"/>
       <use x="486.914062" xlink:href="#DejaVuSans-28"/>
       <use x="525.927734" xlink:href="#DejaVuSans-73"/>
       <use x="578.027344" xlink:href="#DejaVuSans-74"/>
       <use x="617.236328" xlink:href="#DejaVuSans-61"/>
       <use x="678.515625" xlink:href="#DejaVuSans-74"/>
       <use x="717.724609" xlink:href="#DejaVuSans-69"/>
       <use x="745.507812" xlink:href="#DejaVuSans-63"/>
       <use x="800.488281" xlink:href="#DejaVuSans-2c"/>
       <use x="832.275391" xlink:href="#DejaVuSans-20"/>
       <use x="864.0625" xlink:href="#DejaVuSans-45"/>
       <use x="927.246094" xlink:href="#DejaVuSans-72"/>
       <use x="968.34375" xlink:href="#DejaVuSans-72"/>
       <use x="1009.425781" xlink:href="#DejaVuSans-6f"/>
       <use x="1070.607422" xlink:href="#DejaVuSans-72"/>
       <use x="1111.720703" xlink:href="#DejaVuSans-4c"/>
       <use x="1167.433594" xlink:href="#DejaVuSans-69"/>
       <use x="1195.216797" xlink:href="#DejaVuSans-6d"/>
       <use x="1292.628906" xlink:href="#DejaVuSans-69"/>
       <use x="1320.412109" xlink:href="#DejaVuSans-74"/>
       <use x="1359.621094" xlink:href="#DejaVuSans-69"/>
       <use x="1387.404297" xlink:href="#DejaVuSans-6e"/>
       <use x="1450.783203" xlink:href="#DejaVuSans-67"/>
       <use x="1514.259766" xlink:href="#DejaVuSans-4c"/>
       <use x="1569.972656" xlink:href="#DejaVuSans-61"/>
       <use x="1631.251953" xlink:href="#DejaVuSans-79"/>
       <use x="1690.431641" xlink:href="#DejaVuSans-6f"/>
       <use x="1751.613281" xlink:href="#DejaVuSans-75"/>
       <use x="1814.992188" xlink:href="#DejaVuSans-74"/>
       <use x="1854.201172" xlink:href="#DejaVuSans-32"/>
       <use x="1917.824219" xlink:href="#DejaVuSans-29"/>
      </g>
     </g>
    </g>
    <g id="ytick_2">
     <g id="line2d_7">
      <g>
       <use style="stroke:#000000;stroke-width:0.8;" x="184.57" xlink:href="#mfd2aa10084" y="83.916566"/>
      </g>
     </g>
     <g id="text_8">
      <!-- DynaHist (static, ErrorLimitingLayout1) -->
      <g transform="translate(21.025 86.955941)scale(0.08 -0.08)">
       <use xlink:href="#DejaVuSans-44"/>
       <use x="77.001953" xlink:href="#DejaVuSans-79"/>
       <use x="136.181641" xlink:href="#DejaVuSans-6e"/>
       <use x="199.560547" xlink:href="#DejaVuSans-61"/>
       <use x="260.839844" xlink:href="#DejaVuSans-48"/>
       <use x="336.035156" xlink:href="#DejaVuSans-69"/>
       <use x="363.818359" xlink:href="#DejaVuSans-73"/>
       <use x="415.917969" xlink:href="#DejaVuSans-74"/>
       <use x="455.126953" xlink:href="#DejaVuSans-20"/>
       <use x="486.914062" xlink:href="#DejaVuSans-28"/>
       <use x="525.927734" xlink:href="#DejaVuSans-73"/>
       <use x="578.027344" xlink:href="#DejaVuSans-74"/>
       <use x="617.236328" xlink:href="#DejaVuSans-61"/>
       <use x="678.515625" xlink:href="#DejaVuSans-74"/>
       <use x="717.724609" xlink:href="#DejaVuSans-69"/>
       <use x="745.507812" xlink:href="#DejaVuSans-63"/>
       <use x="800.488281" xlink:href="#DejaVuSans-2c"/>
       <use x="832.275391" xlink:href="#DejaVuSans-20"/>
       <use x="864.0625" xlink:href="#DejaVuSans-45"/>
       <use x="927.246094" xlink:href="#DejaVuSans-72"/>
       <use x="968.34375" xlink:href="#DejaVuSans-72"/>
       <use x="1009.425781" xlink:href="#DejaVuSans-6f"/>
       <use x="1070.607422" xlink:href="#DejaVuSans-72"/>
       <use x="1111.720703" xlink:href="#DejaVuSans-4c"/>
       <use x="1167.433594" xlink:href="#DejaVuSans-69"/>
       <use x="1195.216797" xlink:href="#DejaVuSans-6d"/>
       <use x="1292.628906" xlink:href="#DejaVuSans-69"/>
       <use x="1320.412109" xlink:href="#DejaVuSans-74"/>
       <use x="1359.621094" xlink:href="#DejaVuSans-69"/>
       <use x="1387.404297" xlink:href="#DejaVuSans-6e"/>
       <use x="1450.783203" xlink:href="#DejaVuSans-67"/>
       <use x="1514.259766" xlink:href="#DejaVuSans-4c"/>
       <use x="1569.972656" xlink:href="#DejaVuSans-61"/>
       <use x="1631.251953" xlink:href="#DejaVuSans-79"/>
       <use x="1690.431641" xlink:href="#DejaVuSans-6f"/>
       <use x="1751.613281" xlink:href="#DejaVuSans-75"/>
       <use x="1814.992188" xlink:href="#DejaVuSans-74"/>
       <use x="1854.201172" xlink:href="#DejaVuSans-31"/>
       <use x="1917.824219" xlink:href="#DejaVuSans-29"/>
      </g>
     </g>
    </g>
    <g id="ytick_3">
     <g id="line2d_8">
      <g>
       <use style="stroke:#000000;stroke-width:0.8;" x="184.57" xlink:href="#mfd2aa10084" y="66.26"/>
      </g>
     </g>
     <g id="text_9">
      <!-- DynaHist (dynamic, ErrorLimitingLayout2) -->
      <defs>
       <path d="M 45.40625 46.390625 
L 45.40625 75.984375 
L 54.390625 75.984375 
L 54.390625 0 
L 45.40625 0 
L 45.40625 8.203125 
Q 42.578125 3.328125 38.25 0.953125 
Q 33.9375 -1.421875 27.875 -1.421875 
Q 17.96875 -1.421875 11.734375 6.484375 
Q 5.515625 14.40625 5.515625 27.296875 
Q 5.515625 40.1875 11.734375 48.09375 
Q 17.96875 56 27.875 56 
Q 33.9375 56 38.25 53.625 
Q 42.578125 51.265625 45.40625 46.390625 
z
M 14.796875 27.296875 
Q 14.796875 17.390625 18.875 11.75 
Q 22.953125 6.109375 30.078125 6.109375 
Q 37.203125 6.109375 41.296875 11.75 
Q 45.40625 17.390625 45.40625 27.296875 
Q 45.40625 37.203125 41.296875 42.84375 
Q 37.203125 48.484375 30.078125 48.484375 
Q 22.953125 48.484375 18.875 42.84375 
Q 14.796875 37.203125 14.796875 27.296875 
z
" id="DejaVuSans-64"/>
      </defs>
      <g transform="translate(8.78875 69.299375)scale(0.08 -0.08)">
       <use xlink:href="#DejaVuSans-44"/>
       <use x="77.001953" xlink:href="#DejaVuSans-79"/>
       <use x="136.181641" xlink:href="#DejaVuSans-6e"/>
       <use x="199.560547" xlink:href="#DejaVuSans-61"/>
       <use x="260.839844" xlink:href="#DejaVuSans-48"/>
       <use x="336.035156" xlink:href="#DejaVuSans-69"/>
       <use x="363.818359" xlink:href="#DejaVuSans-73"/>
       <use x="415.917969" xlink:href="#DejaVuSans-74"/>
       <use x="455.126953" xlink:href="#DejaVuSans-20"/>
       <use x="486.914062" xlink:href="#DejaVuSans-28"/>
       <use x="525.927734" xlink:href="#DejaVuSans-64"/>
       <use x="589.404297" xlink:href="#DejaVuSans-79"/>
       <use x="648.583984" xlink:href="#DejaVuSans-6e"/>
       <use x="711.962891" xlink:href="#DejaVuSans-61"/>
       <use x="773.242188" xlink:href="#DejaVuSans-6d"/>
       <use x="870.654297" xlink:href="#DejaVuSans-69"/>
       <use x="898.4375" xlink:href="#DejaVuSans-63"/>
       <use x="953.417969" xlink:href="#DejaVuSans-2c"/>
       <use x="985.205078" xlink:href="#DejaVuSans-20"/>
       <use x="1016.992188" xlink:href="#DejaVuSans-45"/>
       <use x="1080.175781" xlink:href="#DejaVuSans-72"/>
       <use x="1121.273438" xlink:href="#DejaVuSans-72"/>
       <use x="1162.355469" xlink:href="#DejaVuSans-6f"/>
       <use x="1223.537109" xlink:href="#DejaVuSans-72"/>
       <use x="1264.650391" xlink:href="#DejaVuSans-4c"/>
       <use x="1320.363281" xlink:href="#DejaVuSans-69"/>
       <use x="1348.146484" xlink:href="#DejaVuSans-6d"/>
       <use x="1445.558594" xlink:href="#DejaVuSans-69"/>
       <use x="1473.341797" xlink:href="#DejaVuSans-74"/>
       <use x="1512.550781" xlink:href="#DejaVuSans-69"/>
       <use x="1540.333984" xlink:href="#DejaVuSans-6e"/>
       <use x="1603.712891" xlink:href="#DejaVuSans-67"/>
       <use x="1667.189453" xlink:href="#DejaVuSans-4c"/>
       <use x="1722.902344" xlink:href="#DejaVuSans-61"/>
       <use x="1784.181641" xlink:href="#DejaVuSans-79"/>
       <use x="1843.361328" xlink:href="#DejaVuSans-6f"/>
       <use x="1904.542969" xlink:href="#DejaVuSans-75"/>
       <use x="1967.921875" xlink:href="#DejaVuSans-74"/>
       <use x="2007.130859" xlink:href="#DejaVuSans-32"/>
       <use x="2070.753906" xlink:href="#DejaVuSans-29"/>
      </g>
     </g>
    </g>
    <g id="ytick_4">
     <g id="line2d_9">
      <g>
       <use style="stroke:#000000;stroke-width:0.8;" x="184.57" xlink:href="#mfd2aa10084" y="48.603434"/>
      </g>
     </g>
     <g id="text_10">
      <!-- DynaHist (dynamic, ErrorLimitingLayout1) -->
      <g transform="translate(8.78875 51.642809)scale(0.08 -0.08)">
       <use xlink:href="#DejaVuSans-44"/>
       <use x="77.001953" xlink:href="#DejaVuSans-79"/>
       <use x="136.181641" xlink:href="#DejaVuSans-6e"/>
       <use x="199.560547" xlink:href="#DejaVuSans-61"/>
       <use x="260.839844" xlink:href="#DejaVuSans-48"/>
       <use x="336.035156" xlink:href="#DejaVuSans-69"/>
       <use x="363.818359" xlink:href="#DejaVuSans-73"/>
       <use x="415.917969" xlink:href="#DejaVuSans-74"/>
       <use x="455.126953" xlink:href="#DejaVuSans-20"/>
       <use x="486.914062" xlink:href="#DejaVuSans-28"/>
       <use x="525.927734" xlink:href="#DejaVuSans-64"/>
       <use x="589.404297" xlink:href="#DejaVuSans-79"/>
       <use x="648.583984" xlink:href="#DejaVuSans-6e"/>
       <use x="711.962891" xlink:href="#DejaVuSans-61"/>
       <use x="773.242188" xlink:href="#DejaVuSans-6d"/>
       <use x="870.654297" xlink:href="#DejaVuSans-69"/>
       <use x="898.4375" xlink:href="#DejaVuSans-63"/>
       <use x="953.417969" xlink:href="#DejaVuSans-2c"/>
       <use x="985.205078" xlink:href="#DejaVuSans-20"/>
       <use x="1016.992188" xlink:href="#DejaVuSans-45"/>
       <use x="1080.175781" xlink:href="#DejaVuSans-72"/>
       <use x="1121.273438" xlink:href="#DejaVuSans-72"/>
       <use x="1162.355469" xlink:href="#DejaVuSans-6f"/>
       <use x="1223.537109" xlink:href="#DejaVuSans-72"/>
       <use x="1264.650391" xlink:href="#DejaVuSans-4c"/>
       <use x="1320.363281" xlink:href="#DejaVuSans-69"/>
       <use x="1348.146484" xlink:href="#DejaVuSans-6d"/>
       <use x="1445.558594" xlink:href="#DejaVuSans-69"/>
       <use x="1473.341797" xlink:href="#DejaVuSans-74"/>
       <use x="1512.550781" xlink:href="#DejaVuSans-69"/>
       <use x="1540.333984" xlink:href="#DejaVuSans-6e"/>
       <use x="1603.712891" xlink:href="#DejaVuSans-67"/>
       <use x="1667.189453" xlink:href="#DejaVuSans-4c"/>
       <use x="1722.902344" xlink:href="#DejaVuSans-61"/>
       <use x="1784.181641" xlink:href="#DejaVuSans-79"/>
       <use x="1843.361328" xlink:href="#DejaVuSans-6f"/>
       <use x="1904.542969" xlink:href="#DejaVuSans-75"/>
       <use x="1967.921875" xlink:href="#DejaVuSans-74"/>
       <use x="2007.130859" xlink:href="#DejaVuSans-31"/>
       <use x="2070.753906" xlink:href="#DejaVuSans-29"/>
      </g>
     </g>
    </g>
    <g id="ytick_5">
     <g id="line2d_10">
      <g>
       <use style="stroke:#000000;stroke-width:0.8;" x="184.57" xlink:href="#mfd2aa10084" y="30.946869"/>
      </g>
     </g>
     <g id="text_11">
      <!-- HdrHistogram (DoubleHistogram) -->
      <defs>
       <path d="M 48.6875 27.296875 
Q 48.6875 37.203125 44.609375 42.84375 
Q 40.53125 48.484375 33.40625 48.484375 
Q 26.265625 48.484375 22.1875 42.84375 
Q 18.109375 37.203125 18.109375 27.296875 
Q 18.109375 17.390625 22.1875 11.75 
Q 26.265625 6.109375 33.40625 6.109375 
Q 40.53125 6.109375 44.609375 11.75 
Q 48.6875 17.390625 48.6875 27.296875 
z
M 18.109375 46.390625 
Q 20.953125 51.265625 25.265625 53.625 
Q 29.59375 56 35.59375 56 
Q 45.5625 56 51.78125 48.09375 
Q 58.015625 40.1875 58.015625 27.296875 
Q 58.015625 14.40625 51.78125 6.484375 
Q 45.5625 -1.421875 35.59375 -1.421875 
Q 29.59375 -1.421875 25.265625 0.953125 
Q 20.953125 3.328125 18.109375 8.203125 
L 18.109375 0 
L 9.078125 0 
L 9.078125 75.984375 
L 18.109375 75.984375 
z
" id="DejaVuSans-62"/>
      </defs>
      <g transform="translate(43.0525 33.986244)scale(0.08 -0.08)">
       <use xlink:href="#DejaVuSans-48"/>
       <use x="75.195312" xlink:href="#DejaVuSans-64"/>
       <use x="138.671875" xlink:href="#DejaVuSans-72"/>
       <use x="179.785156" xlink:href="#DejaVuSans-48"/>
       <use x="254.980469" xlink:href="#DejaVuSans-69"/>
       <use x="282.763672" xlink:href="#DejaVuSans-73"/>
       <use x="334.863281" xlink:href="#DejaVuSans-74"/>
       <use x="374.072266" xlink:href="#DejaVuSans-6f"/>
       <use x="435.253906" xlink:href="#DejaVuSans-67"/>
       <use x="498.730469" xlink:href="#DejaVuSans-72"/>
       <use x="539.84375" xlink:href="#DejaVuSans-61"/>
       <use x="601.123047" xlink:href="#DejaVuSans-6d"/>
       <use x="698.535156" xlink:href="#DejaVuSans-20"/>
       <use x="730.322266" xlink:href="#DejaVuSans-28"/>
       <use x="769.335938" xlink:href="#DejaVuSans-44"/>
       <use x="846.337891" xlink:href="#DejaVuSans-6f"/>
       <use x="907.519531" xlink:href="#DejaVuSans-75"/>
       <use x="970.898438" xlink:href="#DejaVuSans-62"/>
       <use x="1034.375" xlink:href="#DejaVuSans-6c"/>
       <use x="1062.158203" xlink:href="#DejaVuSans-65"/>
       <use x="1123.681641" xlink:href="#DejaVuSans-48"/>
       <use x="1198.876953" xlink:href="#DejaVuSans-69"/>
       <use x="1226.660156" xlink:href="#DejaVuSans-73"/>
       <use x="1278.759766" xlink:href="#DejaVuSans-74"/>
       <use x="1317.96875" xlink:href="#DejaVuSans-6f"/>
       <use x="1379.150391" xlink:href="#DejaVuSans-67"/>
       <use x="1442.626953" xlink:href="#DejaVuSans-72"/>
       <use x="1483.740234" xlink:href="#DejaVuSans-61"/>
       <use x="1545.019531" xlink:href="#DejaVuSans-6d"/>
       <use x="1642.431641" xlink:href="#DejaVuSans-29"/>
      </g>
     </g>
    </g>
   </g>
   <g id="patch_8">
    <path d="M 184.57 109.96 
L 184.57 22.56 
" style="fill:none;stroke:#000000;stroke-linecap:square;stroke-linejoin:miter;stroke-width:0.8;"/>
   </g>
   <g id="patch_9">
    <path d="M 348.84 109.96 
L 348.84 22.56 
" style="fill:none;stroke:#000000;stroke-linecap:square;stroke-linejoin:miter;stroke-width:0.8;"/>
   </g>
   <g id="patch_10">
    <path d="M 184.57 109.96 
L 348.84 109.96 
" style="fill:none;stroke:#000000;stroke-linecap:square;stroke-linejoin:miter;stroke-width:0.8;"/>
   </g>
   <g id="patch_11">
    <path d="M 184.57 22.56 
L 348.84 22.56 
" style="fill:none;stroke:#000000;stroke-linecap:square;stroke-linejoin:miter;stroke-width:0.8;"/>
   </g>
   <g id="text_12">
    <!-- 6.74 -->
    <defs>
     <path d="M 33.015625 40.375 
Q 26.375 40.375 22.484375 35.828125 
Q 18.609375 31.296875 18.609375 23.390625 
Q 18.609375 15.53125 22.484375 10.953125 
Q 26.375 6.390625 33.015625 6.390625 
Q 39.65625 6.390625 43.53125 10.953125 
Q 47.40625 15.53125 47.40625 23.390625 
Q 47.40625 31.296875 43.53125 35.828125 
Q 39.65625 40.375 33.015625 40.375 
z
M 52.59375 71.296875 
L 52.59375 62.3125 
Q 48.875 64.0625 45.09375 64.984375 
Q 41.3125 65.921875 37.59375 65.921875 
Q 27.828125 65.921875 22.671875 59.328125 
Q 17.53125 52.734375 16.796875 39.40625 
Q 19.671875 43.65625 24.015625 45.921875 
Q 28.375 48.1875 33.59375 48.1875 
Q 44.578125 48.1875 50.953125 41.515625 
Q 57.328125 34.859375 57.328125 23.390625 
Q 57.328125 12.15625 50.6875 5.359375 
Q 44.046875 -1.421875 33.015625 -1.421875 
Q 20.359375 -1.421875 13.671875 8.265625 
Q 6.984375 17.96875 6.984375 36.375 
Q 6.984375 53.65625 15.1875 63.9375 
Q 23.390625 74.21875 37.203125 74.21875 
Q 40.921875 74.21875 44.703125 73.484375 
Q 48.484375 72.75 52.59375 71.296875 
z
" id="DejaVuSans-36"/>
     <path d="M 37.796875 64.3125 
L 12.890625 25.390625 
L 37.796875 25.390625 
z
M 35.203125 72.90625 
L 47.609375 72.90625 
L 47.609375 25.390625 
L 58.015625 25.390625 
L 58.015625 17.1875 
L 47.609375 17.1875 
L 47.609375 0 
L 37.796875 0 
L 37.796875 17.1875 
L 4.890625 17.1875 
L 4.890625 26.703125 
z
" id="DejaVuSans-34"/>
    </defs>
    <g transform="translate(276.352183 103.780631)scale(0.08 -0.08)">
     <use xlink:href="#DejaVuSans-36"/>
     <use x="63.623047" xlink:href="#DejaVuSans-2e"/>
     <use x="95.410156" xlink:href="#DejaVuSans-37"/>
     <use x="159.033203" xlink:href="#DejaVuSans-34"/>
    </g>
   </g>
   <g id="text_13">
    <!-- 6.31 -->
    <defs>
     <path d="M 40.578125 39.3125 
Q 47.65625 37.796875 51.625 33 
Q 55.609375 28.21875 55.609375 21.1875 
Q 55.609375 10.40625 48.1875 4.484375 
Q 40.765625 -1.421875 27.09375 -1.421875 
Q 22.515625 -1.421875 17.65625 -0.515625 
Q 12.796875 0.390625 7.625 2.203125 
L 7.625 11.71875 
Q 11.71875 9.328125 16.59375 8.109375 
Q 21.484375 6.890625 26.8125 6.890625 
Q 36.078125 6.890625 40.9375 10.546875 
Q 45.796875 14.203125 45.796875 21.1875 
Q 45.796875 27.640625 41.28125 31.265625 
Q 36.765625 34.90625 28.71875 34.90625 
L 20.21875 34.90625 
L 20.21875 43.015625 
L 29.109375 43.015625 
Q 36.375 43.015625 40.234375 45.921875 
Q 44.09375 48.828125 44.09375 54.296875 
Q 44.09375 59.90625 40.109375 62.90625 
Q 36.140625 65.921875 28.71875 65.921875 
Q 24.65625 65.921875 20.015625 65.03125 
Q 15.375 64.15625 9.8125 62.3125 
L 9.8125 71.09375 
Q 15.4375 72.65625 20.34375 73.4375 
Q 25.25 74.21875 29.59375 74.21875 
Q 40.828125 74.21875 47.359375 69.109375 
Q 53.90625 64.015625 53.90625 55.328125 
Q 53.90625 49.265625 50.4375 45.09375 
Q 46.96875 40.921875 40.578125 39.3125 
z
" id="DejaVuSans-33"/>
    </defs>
    <g transform="translate(270.527403 86.124066)scale(0.08 -0.08)">
     <use xlink:href="#DejaVuSans-36"/>
     <use x="63.623047" xlink:href="#DejaVuSans-2e"/>
     <use x="95.410156" xlink:href="#DejaVuSans-33"/>
     <use x="159.033203" xlink:href="#DejaVuSans-31"/>
    </g>
   </g>
   <g id="text_14">
    <!-- 8.33 -->
    <defs>
     <path d="M 31.78125 34.625 
Q 24.75 34.625 20.71875 30.859375 
Q 16.703125 27.09375 16.703125 20.515625 
Q 16.703125 13.921875 20.71875 10.15625 
Q 24.75 6.390625 31.78125 6.390625 
Q 38.8125 6.390625 42.859375 10.171875 
Q 46.921875 13.96875 46.921875 20.515625 
Q 46.921875 27.09375 42.890625 30.859375 
Q 38.875 34.625 31.78125 34.625 
z
M 21.921875 38.8125 
Q 15.578125 40.375 12.03125 44.71875 
Q 8.5 49.078125 8.5 55.328125 
Q 8.5 64.0625 14.71875 69.140625 
Q 20.953125 74.21875 31.78125 74.21875 
Q 42.671875 74.21875 48.875 69.140625 
Q 55.078125 64.0625 55.078125 55.328125 
Q 55.078125 49.078125 51.53125 44.71875 
Q 48 40.375 41.703125 38.8125 
Q 48.828125 37.15625 52.796875 32.3125 
Q 56.78125 27.484375 56.78125 20.515625 
Q 56.78125 9.90625 50.3125 4.234375 
Q 43.84375 -1.421875 31.78125 -1.421875 
Q 19.734375 -1.421875 13.25 4.234375 
Q 6.78125 9.90625 6.78125 20.515625 
Q 6.78125 27.484375 10.78125 32.3125 
Q 14.796875 37.15625 21.921875 38.8125 
z
M 18.3125 54.390625 
Q 18.3125 48.734375 21.84375 45.5625 
Q 25.390625 42.390625 31.78125 42.390625 
Q 38.140625 42.390625 41.71875 45.5625 
Q 45.3125 48.734375 45.3125 54.390625 
Q 45.3125 60.0625 41.71875 63.234375 
Q 38.140625 66.40625 31.78125 66.40625 
Q 25.390625 66.40625 21.84375 63.234375 
Q 18.3125 60.0625 18.3125 54.390625 
z
" id="DejaVuSans-38"/>
    </defs>
    <g transform="translate(297.784607 68.4675)scale(0.08 -0.08)">
     <use xlink:href="#DejaVuSans-38"/>
     <use x="63.623047" xlink:href="#DejaVuSans-2e"/>
     <use x="95.410156" xlink:href="#DejaVuSans-33"/>
     <use x="159.033203" xlink:href="#DejaVuSans-33"/>
    </g>
   </g>
   <g id="text_15">
    <!-- 7.87 -->
    <g transform="translate(291.635562 50.810934)scale(0.08 -0.08)">
     <use xlink:href="#DejaVuSans-37"/>
     <use x="63.623047" xlink:href="#DejaVuSans-2e"/>
     <use x="95.410156" xlink:href="#DejaVuSans-38"/>
     <use x="159.033203" xlink:href="#DejaVuSans-37"/>
    </g>
   </g>
   <g id="text_16">
    <!-- 10.1 -->
    <g transform="translate(322.283017 33.154369)scale(0.08 -0.08)">
     <use xlink:href="#DejaVuSans-31"/>
     <use x="63.623047" xlink:href="#DejaVuSans-30"/>
     <use x="127.246094" xlink:href="#DejaVuSans-2e"/>
     <use x="159.033203" xlink:href="#DejaVuSans-31"/>
    </g>
   </g>
   <g id="text_17">
    <!-- Recording Speed -->
    <defs>
     <path d="M 44.390625 34.1875 
Q 47.5625 33.109375 50.5625 29.59375 
Q 53.5625 26.078125 56.59375 19.921875 
L 66.609375 0 
L 56 0 
L 46.6875 18.703125 
Q 43.0625 26.03125 39.671875 28.421875 
Q 36.28125 30.8125 30.421875 30.8125 
L 19.671875 30.8125 
L 19.671875 0 
L 9.8125 0 
L 9.8125 72.90625 
L 32.078125 72.90625 
Q 44.578125 72.90625 50.734375 67.671875 
Q 56.890625 62.453125 56.890625 51.90625 
Q 56.890625 45.015625 53.6875 40.46875 
Q 50.484375 35.9375 44.390625 34.1875 
z
M 19.671875 64.796875 
L 19.671875 38.921875 
L 32.078125 38.921875 
Q 39.203125 38.921875 42.84375 42.21875 
Q 46.484375 45.515625 46.484375 51.90625 
Q 46.484375 58.296875 42.84375 61.546875 
Q 39.203125 64.796875 32.078125 64.796875 
z
" id="DejaVuSans-52"/>
     <path d="M 53.515625 70.515625 
L 53.515625 60.890625 
Q 47.90625 63.578125 42.921875 64.890625 
Q 37.9375 66.21875 33.296875 66.21875 
Q 25.25 66.21875 20.875 63.09375 
Q 16.5 59.96875 16.5 54.203125 
Q 16.5 49.359375 19.40625 46.890625 
Q 22.3125 44.4375 30.421875 42.921875 
L 36.375 41.703125 
Q 47.40625 39.59375 52.65625 34.296875 
Q 57.90625 29 57.90625 20.125 
Q 57.90625 9.515625 50.796875 4.046875 
Q 43.703125 -1.421875 29.984375 -1.421875 
Q 24.8125 -1.421875 18.96875 -0.25 
Q 13.140625 0.921875 6.890625 3.21875 
L 6.890625 13.375 
Q 12.890625 10.015625 18.65625 8.296875 
Q 24.421875 6.59375 29.984375 6.59375 
Q 38.421875 6.59375 43.015625 9.90625 
Q 47.609375 13.234375 47.609375 19.390625 
Q 47.609375 24.75 44.3125 27.78125 
Q 41.015625 30.8125 33.5 32.328125 
L 27.484375 33.5 
Q 16.453125 35.6875 11.515625 40.375 
Q 6.59375 45.0625 6.59375 53.421875 
Q 6.59375 63.09375 13.40625 68.65625 
Q 20.21875 74.21875 32.171875 74.21875 
Q 37.3125 74.21875 42.625 73.28125 
Q 47.953125 72.359375 53.515625 70.515625 
z
" id="DejaVuSans-53"/>
    </defs>
    <g transform="translate(225.82625 16.56)scale(0.096 -0.096)">
     <use xlink:href="#DejaVuSans-52"/>
     <use x="69.419922" xlink:href="#DejaVuSans-65"/>
     <use x="130.943359" xlink:href="#DejaVuSans-63"/>
     <use x="185.923828" xlink:href="#DejaVuSans-6f"/>
     <use x="247.105469" xlink:href="#DejaVuSans-72"/>
     <use x="288.203125" xlink:href="#DejaVuSans-64"/>
     <use x="351.679688" xlink:href="#DejaVuSans-69"/>
     <use x="379.462891" xlink:href="#DejaVuSans-6e"/>
     <use x="442.841797" xlink:href="#DejaVuSans-67"/>
     <use x="506.318359" xlink:href="#DejaVuSans-20"/>
     <use x="538.105469" xlink:href="#DejaVuSans-53"/>
     <use x="601.582031" xlink:href="#DejaVuSans-70"/>
     <use x="665.058594" xlink:href="#DejaVuSans-65"/>
     <use x="726.582031" xlink:href="#DejaVuSans-65"/>
     <use x="788.105469" xlink:href="#DejaVuSans-64"/>
    </g>
   </g>
  </g>
 </g>
 <defs>
  <clipPath id="p0720386e26">
   <rect height="87.4" width="164.27" x="184.57" y="22.56"/>
  </clipPath>
 </defs>
</svg>
